<svg version="1.1" id="Layer_1" xmlns="http://www.w3.org/2000/svg" xmlns:xlink="http://www.w3.org/1999/xlink" x="0px" y="0px"
	 width="100%" viewBox="0 0 1080 1041" enable-background="new 0 0 1080 1041" xml:space="preserve">
<path fill="none" opacity="1.000000" stroke="none" 
	d="
M676.000000,1042.000000 
	C451.069183,1042.000000 226.138351,1042.000000 1.000000,1042.000000 
	C1.000000,812.639832 1.000000,583.279602 1.350307,353.700867 
	C2.128867,358.746704 2.335927,364.040344 3.028090,369.269775 
	C4.881639,383.273651 6.453588,397.340424 9.016740,411.219849 
	C15.823393,448.077759 28.027981,483.024261 47.121513,515.446594 
	C61.753418,540.292847 79.630173,562.365601 101.581154,581.159058 
	C120.117424,597.028931 140.372818,610.045044 162.692932,619.944458 
	C192.805389,633.299866 224.433426,640.452759 257.130005,642.859680 
	C268.787537,643.717896 280.577515,643.385742 292.276794,642.887329 
	C302.794952,642.439270 313.329803,641.427429 323.755005,639.945068 
	C348.031464,636.493103 371.201050,629.185425 393.172180,618.309204 
	C400.875153,614.496155 408.207184,609.933777 416.344788,605.355652 
	C416.344788,614.916199 416.344788,623.831055 416.344788,632.686462 
	C504.724365,632.686462 592.623718,632.686462 681.171753,632.686462 
	C681.171753,607.676331 681.171753,582.973206 681.171753,558.333862 
	C697.405457,558.333862 712.987427,558.333862 728.596375,558.333862 
	C728.596375,671.013733 728.596375,783.359314 728.596375,896.178955 
	C710.944946,896.178955 693.693359,896.178955 676.000000,896.178955 
	C676.000000,945.101746 676.000000,993.550842 676.000000,1042.000000 
z"/>
<path fill="none" opacity="1.000000" stroke="none" 
	d="
M296.000000,0.999999 
	C557.574219,1.000000 819.148438,1.000000 1081.000000,1.000000 
	C1081.000000,137.692368 1081.000000,274.384918 1080.531372,411.538818 
	C907.817139,412.000122 735.571594,412.000122 562.848022,412.000122 
	C562.848022,365.307098 562.848022,319.388153 562.848022,273.418274 
	C469.334564,273.418274 376.300873,273.418274 283.345612,273.418274 
	C283.345612,319.087708 283.345612,364.338135 283.345612,410.065582 
	C326.273834,410.065582 368.859650,410.065582 411.964966,410.065582 
	C411.964966,419.818665 412.039764,429.104187 411.881653,438.385712 
	C411.858826,439.726166 410.877075,441.154846 410.068634,442.361511 
	C399.639618,457.927704 384.909882,468.498016 368.490814,476.614685 
	C349.701965,485.902893 329.418213,490.488007 308.599792,491.834015 
	C294.580688,492.740356 280.558807,491.894043 266.598450,489.170776 
	C228.812180,481.799805 201.585815,460.713165 183.988556,426.848724 
	C170.452621,400.799896 164.701202,372.520996 163.306366,343.632172 
	C162.190155,320.513916 162.041107,297.257202 165.809509,274.123383 
	C169.280426,252.815750 174.709183,232.362991 184.878738,213.202118 
	C195.567520,193.062927 210.588776,177.294617 230.986130,167.103455 
	C245.690384,159.756760 261.446564,156.300034 277.922333,154.732025 
	C294.658417,153.139236 310.978058,154.444839 326.959564,158.650482 
	C348.271973,164.258987 366.963074,174.777679 381.960846,191.392334 
	C394.439911,205.216705 402.638214,220.646469 402.023773,239.840118 
	C401.866119,244.765427 402.000122,249.700089 402.000122,254.712341 
	C451.971130,254.712341 501.221130,254.712341 550.609375,254.712341 
	C550.609375,174.057220 550.609375,93.689987 550.609375,13.263894 
	C549.578918,13.151016 548.928101,13.017497 548.277283,13.017316 
	C504.111877,13.005028 459.946381,13.040635 415.781219,12.937709 
	C411.801697,12.928435 411.103729,14.953444 410.976929,18.165306 
	C410.686066,25.531452 410.260406,32.892277 409.925293,39.544300 
	C398.369049,33.248974 387.108429,26.464912 375.301056,20.825731 
	C354.493011,10.887855 332.333588,5.452085 309.429199,2.964838 
	C304.934662,2.476765 300.475494,1.663358 296.000000,0.999999 
z"/>
<path fill="#9EA2A2" opacity="1.000000" stroke="none" 
	d="
M295.531342,0.999999 
	C300.475494,1.663358 304.934662,2.476765 309.429199,2.964838 
	C332.333588,5.452085 354.493011,10.887855 375.301056,20.825731 
	C387.108429,26.464912 398.369049,33.248974 409.925293,39.544300 
	C410.260406,32.892277 410.686066,25.531452 410.976929,18.165306 
	C411.103729,14.953444 411.801697,12.928435 415.781219,12.937709 
	C459.946381,13.040635 504.111877,13.005028 548.277283,13.017316 
	C548.928101,13.017497 549.578918,13.151016 550.609375,13.263894 
	C550.609375,93.689987 550.609375,174.057220 550.609375,254.712341 
	C501.221130,254.712341 451.971130,254.712341 402.000122,254.712341 
	C402.000122,249.700089 401.866119,244.765427 402.023773,239.840118 
	C402.638214,220.646469 394.439911,205.216705 381.960846,191.392334 
	C366.963074,174.777679 348.271973,164.258987 326.959564,158.650482 
	C310.978058,154.444839 294.658417,153.139236 277.922333,154.732025 
	C261.446564,156.300034 245.690384,159.756760 230.986130,167.103455 
	C210.588776,177.294617 195.567520,193.062927 184.878738,213.202118 
	C174.709183,232.362991 169.280426,252.815750 165.809509,274.123383 
	C162.041107,297.257202 162.190155,320.513916 163.306366,343.632172 
	C164.701202,372.520996 170.452621,400.799896 183.988556,426.848724 
	C201.585815,460.713165 228.812180,481.799805 266.598450,489.170776 
	C280.558807,491.894043 294.580688,492.740356 308.599792,491.834015 
	C329.418213,490.488007 349.701965,485.902893 368.490814,476.614685 
	C384.909882,468.498016 399.639618,457.927704 410.068634,442.361511 
	C410.877075,441.154846 411.858826,439.726166 411.881653,438.385712 
	C412.039764,429.104187 411.964966,419.818665 411.964966,410.065582 
	C368.859650,410.065582 326.273834,410.065582 283.345612,410.065582 
	C283.345612,364.338135 283.345612,319.087708 283.345612,273.418274 
	C376.300873,273.418274 469.334564,273.418274 562.848022,273.418274 
	C562.848022,319.388153 562.848022,365.307098 562.848022,412.000122 
	C735.571594,412.000122 907.817139,412.000122 1080.531372,412.000061 
	C1081.000000,485.354218 1081.000000,558.708435 1080.531372,632.531372 
	C1033.162964,633.000000 986.263245,633.000000 938.900757,633.000000 
	C938.900757,607.688232 938.900757,583.109314 938.900757,558.378906 
	C922.735229,558.378906 907.038696,558.378906 891.420349,558.378906 
	C891.420349,671.085083 891.420349,783.411865 891.420349,896.207886 
	C909.419250,896.207886 927.001465,896.207886 945.000000,896.207886 
	C945.000000,945.118103 945.000000,993.559082 945.000000,1042.000000 
	C855.645752,1042.000000 766.291565,1042.000000 676.468628,1042.000000 
	C676.000000,993.550842 676.000000,945.101746 676.000000,896.178955 
	C693.693359,896.178955 710.944946,896.178955 728.596375,896.178955 
	C728.596375,783.359314 728.596375,671.013733 728.596375,558.333862 
	C712.987427,558.333862 697.405457,558.333862 681.171753,558.333862 
	C681.171753,582.973206 681.171753,607.676331 681.171753,632.686462 
	C592.623718,632.686462 504.724365,632.686462 416.344788,632.686462 
	C416.344788,623.831055 416.344788,614.916199 416.344788,605.355652 
	C408.207184,609.933777 400.875153,614.496155 393.172180,618.309204 
	C371.201050,629.185425 348.031464,636.493103 323.755005,639.945068 
	C313.329803,641.427429 302.794952,642.439270 292.276794,642.887329 
	C280.577515,643.385742 268.787537,643.717896 257.130005,642.859680 
	C224.433426,640.452759 192.805389,633.299866 162.692932,619.944458 
	C140.372818,610.045044 120.117424,597.028931 101.581154,581.159058 
	C79.630173,562.365601 61.753418,540.292847 47.121513,515.446594 
	C28.027981,483.024261 15.823393,448.077759 9.016740,411.219849 
	C6.453588,397.340424 4.881639,383.273651 3.028090,369.269775 
	C2.335927,364.040344 2.128867,358.746704 1.350307,353.241180 
	C1.000000,334.312439 1.000000,315.624878 1.350596,296.226929 
	C3.161962,279.753998 3.721102,263.840698 6.324544,248.269196 
	C9.213708,230.988754 13.556580,213.912201 18.006010,196.940750 
	C25.069069,170.000137 36.074753,144.591187 50.744785,120.947174 
	C65.900688,96.520065 84.155968,74.684059 106.778069,56.596279 
	C126.412094,40.897655 147.898224,28.558224 171.228622,19.442137 
	C193.701660,10.661048 217.011627,5.179017 241.069916,2.947827 
	C246.063873,2.484683 251.024185,1.658739 256.000000,0.999999 
	C269.020905,1.000000 282.041779,1.000000 295.531342,0.999999 
M962.166077,535.441895 
	C962.318176,535.688477 962.525513,535.872986 962.898560,536.926880 
	C962.898560,561.176697 962.898560,585.426453 962.898560,609.620361 
	C994.771851,609.620361 1025.842163,609.620361 1056.930176,609.620361 
	C1056.930176,551.654602 1056.930176,494.069092 1056.930176,436.237457 
	C892.239990,436.237457 727.862183,436.237457 563.362183,436.237457 
	C563.362183,494.247559 563.362183,551.955933 563.362183,609.656372 
	C594.962280,609.656372 626.198914,609.656372 658.072388,609.656372 
	C658.072388,584.605896 658.072388,559.891602 658.072388,535.301147 
	C689.931580,535.301147 721.149475,535.301147 752.300903,535.301147 
	C752.300903,663.419739 752.300903,791.110596 752.300903,919.235229 
	C734.408630,919.235229 716.969116,919.235229 699.286987,919.235229 
	C699.286987,952.378906 699.286987,985.087036 699.286987,1017.848755 
	C773.353271,1017.848755 847.068359,1017.848755 920.936279,1017.848755 
	C920.936279,984.877747 920.936279,952.301025 920.936279,919.109375 
	C903.249390,919.109375 885.857971,919.109375 868.316650,919.109375 
	C868.316650,790.773499 868.316650,663.053772 868.316650,535.334839 
	C869.083130,535.144531 869.551147,534.926208 870.018921,534.926697 
	C900.678711,534.958313 931.338440,535.007568 962.166077,535.441895 
M425.927063,231.897949 
	C459.556793,231.897949 493.186523,231.897949 527.285400,231.897949 
	C527.285400,166.356155 527.285400,101.306564 527.285400,36.282890 
	C495.764252,36.282890 464.527039,36.282890 432.833649,36.282890 
	C432.075928,49.327061 431.340118,61.994267 430.584656,75.000000 
	C425.509308,75.000000 420.852905,74.787849 416.227234,75.073418 
	C413.061035,75.268875 411.165192,73.947075 408.955231,71.848907 
	C402.813721,66.018181 396.732086,59.945232 389.809448,55.147255 
	C358.727814,33.604973 323.401459,25.548683 286.268646,24.111347 
	C276.018677,23.714588 265.718109,24.718861 255.438248,24.981010 
	C236.212097,25.471300 217.491470,29.093834 199.168228,34.605606 
	C133.788406,54.272339 87.686272,96.384834 57.995163,157.129532 
	C41.085342,191.725159 31.327795,228.494446 27.127888,266.681458 
	C25.178207,284.408630 24.130466,302.246094 23.112221,320.058624 
	C22.746168,326.462128 23.623821,332.941620 24.007835,339.382019 
	C24.646889,350.099670 24.740290,360.894806 26.161182,371.510376 
	C28.288576,387.404236 30.512785,403.372437 34.192348,418.955658 
	C47.966106,477.288422 74.597397,528.256653 121.533340,567.122253 
	C159.963089,598.944275 205.007950,614.520203 253.905197,619.783752 
	C267.334076,621.229309 281.103058,620.897888 294.605804,619.896667 
	C308.905396,618.836365 323.306763,617.003540 337.251648,613.744995 
	C367.574402,606.659485 395.731140,594.672729 418.893097,572.961121 
	C419.817474,572.094604 421.109802,571.118164 422.260193,571.079895 
	C428.028992,570.888184 433.807648,570.992004 439.500000,570.992004 
	C439.500000,584.474670 439.500000,597.327637 439.500000,610.388916 
	C472.947662,610.388916 506.334839,610.388916 539.735962,610.388916 
	C539.735962,505.462036 539.735962,400.903809 539.735962,296.427551 
	C461.631866,296.427551 383.917786,296.427551 306.342224,296.427551 
	C306.342224,326.779938 306.342224,356.703705 306.342224,387.137085 
	C349.256104,387.137085 391.830841,387.137085 434.362000,387.137085 
	C434.604980,388.096649 434.826324,388.564331 434.827026,389.032349 
	C434.854706,407.365295 434.909485,425.698578 434.793854,444.030762 
	C434.783173,445.722015 433.906586,447.541199 433.032288,449.072754 
	C425.217041,462.763153 414.305389,473.660126 401.801147,483.024231 
	C374.741913,503.288025 343.553986,512.253540 310.463898,514.758118 
	C291.802307,516.170654 273.134949,514.874268 254.690689,510.313354 
	C215.242508,500.558594 185.885086,477.928009 166.283783,442.589996 
	C146.009171,406.038147 140.408737,365.934601 139.155930,325.000214 
	C138.792725,313.132568 140.138748,301.195557 140.995377,289.311584 
	C142.324524,270.872711 145.743835,252.784821 151.228531,235.132660 
	C159.051514,209.954941 171.200073,187.163406 190.240707,168.645844 
	C213.464493,146.060013 241.938446,134.534073 273.880707,132.229034 
	C288.267609,131.190826 303.035583,131.329575 317.287445,133.352264 
	C349.891205,137.979568 378.285797,151.901154 400.229248,177.013184 
	C413.676910,192.402603 424.107727,209.496017 424.179077,231.474762 
	C424.179077,231.474762 424.519897,231.807098 424.519897,231.807098 
	C424.519897,231.807098 424.995544,231.787537 425.927063,231.897949 
z"/>
<path fill="none" opacity="1.000000" stroke="none" 
	d="
M945.468628,1042.000000 
	C945.000000,993.559082 945.000000,945.118103 945.000000,896.207886 
	C927.001465,896.207886 909.419250,896.207886 891.420349,896.207886 
	C891.420349,783.411865 891.420349,671.085083 891.420349,558.378906 
	C907.038696,558.378906 922.735229,558.378906 938.900757,558.378906 
	C938.900757,583.109314 938.900757,607.688232 938.900757,633.000000 
	C986.263245,633.000000 1033.162964,633.000000 1080.531372,633.000000 
	C1081.000000,769.223816 1081.000000,905.447693 1081.000000,1042.000000 
	C1035.979614,1042.000000 990.958496,1042.000000 945.468628,1042.000000 
z"/>
<path fill="none" opacity="1.000000" stroke="none" 
	d="
M255.531342,0.999999 
	C251.024185,1.658739 246.063873,2.484683 241.069916,2.947827 
	C217.011627,5.179017 193.701660,10.661048 171.228622,19.442137 
	C147.898224,28.558224 126.412094,40.897655 106.778069,56.596279 
	C84.155968,74.684059 65.900688,96.520065 50.744785,120.947174 
	C36.074753,144.591187 25.069069,170.000137 18.006010,196.940750 
	C13.556580,213.912201 9.213708,230.988754 6.324544,248.269196 
	C3.721102,263.840698 3.161962,279.753998 1.350596,295.758270 
	C1.000000,197.744934 1.000000,99.489876 1.000000,1.000000 
	C85.687416,1.000000 170.375046,1.000000 255.531342,0.999999 
z"/>
<path fill="#003DA5" opacity="1.000000" stroke="none" 
	d="
M424.160950,230.998688 
	C424.107727,209.496017 413.676910,192.402603 400.229248,177.013184 
	C378.285797,151.901154 349.891205,137.979568 317.287445,133.352264 
	C303.035583,131.329575 288.267609,131.190826 273.880707,132.229034 
	C241.938446,134.534073 213.464493,146.060013 190.240707,168.645844 
	C171.200073,187.163406 159.051514,209.954941 151.228531,235.132660 
	C145.743835,252.784821 142.324524,270.872711 140.995377,289.311584 
	C140.138748,301.195557 138.792725,313.132568 139.155930,325.000214 
	C140.408737,365.934601 146.009171,406.038147 166.283783,442.589996 
	C185.885086,477.928009 215.242508,500.558594 254.690689,510.313354 
	C273.134949,514.874268 291.802307,516.170654 310.463898,514.758118 
	C343.553986,512.253540 374.741913,503.288025 401.801147,483.024231 
	C414.305389,473.660126 425.217041,462.763153 433.032288,449.072754 
	C433.906586,447.541199 434.783173,445.722015 434.793854,444.030762 
	C434.909485,425.698578 434.854706,407.365295 434.827026,389.032349 
	C434.826324,388.564331 434.604980,388.096649 434.362000,387.137085 
	C391.830841,387.137085 349.256104,387.137085 306.342224,387.137085 
	C306.342224,356.703705 306.342224,326.779938 306.342224,296.427551 
	C383.917786,296.427551 461.631866,296.427551 539.735962,296.427551 
	C539.735962,400.903809 539.735962,505.462036 539.735962,610.388916 
	C506.334839,610.388916 472.947662,610.388916 439.500000,610.388916 
	C439.500000,597.327637 439.500000,584.474670 439.500000,570.992004 
	C433.807648,570.992004 428.028992,570.888184 422.260193,571.079895 
	C421.109802,571.118164 419.817474,572.094604 418.893097,572.961121 
	C395.731140,594.672729 367.574402,606.659485 337.251648,613.744995 
	C323.306763,617.003540 308.905396,618.836365 294.605804,619.896667 
	C281.103058,620.897888 267.334076,621.229309 253.905197,619.783752 
	C205.007950,614.520203 159.963089,598.944275 121.533340,567.122253 
	C74.597397,528.256653 47.966106,477.288422 34.192348,418.955658 
	C30.512785,403.372437 28.288576,387.404236 26.161182,371.510376 
	C24.740290,360.894806 24.646889,350.099670 24.007835,339.382019 
	C23.623821,332.941620 22.746168,326.462128 23.112221,320.058624 
	C24.130466,302.246094 25.178207,284.408630 27.127888,266.681458 
	C31.327795,228.494446 41.085342,191.725159 57.995163,157.129532 
	C87.686272,96.384834 133.788406,54.272339 199.168228,34.605606 
	C217.491470,29.093834 236.212097,25.471300 255.438248,24.981010 
	C265.718109,24.718861 276.018677,23.714588 286.268646,24.111347 
	C323.401459,25.548683 358.727814,33.604973 389.809448,55.147255 
	C396.732086,59.945232 402.813721,66.018181 408.955231,71.848907 
	C411.165192,73.947075 413.061035,75.268875 416.227234,75.073418 
	C420.852905,74.787849 425.509308,75.000000 430.584656,75.000000 
	C431.340118,61.994267 432.075928,49.327061 432.833649,36.282890 
	C464.527039,36.282890 495.764252,36.282890 527.285400,36.282890 
	C527.285400,101.306564 527.285400,166.356155 527.285400,231.897949 
	C493.186523,231.897949 459.556793,231.897949 425.360535,231.674789 
	C424.621735,231.246552 424.410706,231.095566 424.160950,230.998688 
z"/>
<path fill="#003DA5" opacity="1.000000" stroke="none" 
	d="
M961.998230,535.055298 
	C931.338440,535.007568 900.678711,534.958313 870.018921,534.926697 
	C869.551147,534.926208 869.083130,535.144531 868.316650,535.334839 
	C868.316650,663.053772 868.316650,790.773499 868.316650,919.109375 
	C885.857971,919.109375 903.249390,919.109375 920.936279,919.109375 
	C920.936279,952.301025 920.936279,984.877747 920.936279,1017.848755 
	C847.068359,1017.848755 773.353271,1017.848755 699.286987,1017.848755 
	C699.286987,985.087036 699.286987,952.378906 699.286987,919.235229 
	C716.969116,919.235229 734.408630,919.235229 752.300903,919.235229 
	C752.300903,791.110596 752.300903,663.419739 752.300903,535.301147 
	C721.149475,535.301147 689.931580,535.301147 658.072388,535.301147 
	C658.072388,559.891602 658.072388,584.605896 658.072388,609.656372 
	C626.198914,609.656372 594.962280,609.656372 563.362183,609.656372 
	C563.362183,551.955933 563.362183,494.247559 563.362183,436.237457 
	C727.862183,436.237457 892.239990,436.237457 1056.930176,436.237457 
	C1056.930176,494.069092 1056.930176,551.654602 1056.930176,609.620361 
	C1025.842163,609.620361 994.771851,609.620361 962.898560,609.620361 
	C962.898560,585.426453 962.898560,561.176697 962.854736,536.212463 
	C962.657593,535.134827 962.386658,534.987244 961.998230,535.055298 
z"/>
<path fill="#164BA5" opacity="1.000000" stroke="none" 
	d="
M424.170013,231.236725 
	C424.410706,231.095566 424.621735,231.246552 424.894775,231.619583 
	C424.995544,231.787537 424.519897,231.807098 424.519897,231.807098 
	C424.519897,231.807098 424.179077,231.474762 424.170013,231.236725 
z"/>
<path fill="#8894A2" opacity="1.000000" stroke="none" 
	d="
M962.082153,535.248596 
	C962.386658,534.987244 962.657593,535.134827 962.799561,535.746704 
	C962.525513,535.872986 962.318176,535.688477 962.082153,535.248596 
z"/>
</svg>